<?xml version="1.0" standalone="no"?>
<!DOCTYPE svg PUBLIC "-//W3C//DTD SVG 20010904//EN"
 "http://www.w3.org/TR/2001/REC-SVG-20010904/DTD/svg10.dtd">
<svg version="1.0" xmlns="http://www.w3.org/2000/svg"
 width="1024.000000pt" height="1024.000000pt" viewBox="0 0 1024.000000 1024.000000"
 preserveAspectRatio="xMidYMid meet">

<g transform="translate(0.000000,1024.000000) scale(0.100000,-0.100000)"
fill="#000000" stroke="none">
<path d="M4101 6763 c-52 -2 -100 -8 -105 -12 -6 -5 -73 -12 -149 -16 -75 -4
-139 -11 -142 -15 -3 -5 -48 -11 -100 -15 -52 -4 -98 -11 -101 -16 -3 -5 -20
-9 -38 -9 -18 0 -36 -3 -40 -7 -4 -4 -23 -8 -41 -8 -19 -1 -38 -4 -41 -8 -4
-4 -20 -7 -35 -7 -15 0 -30 -4 -33 -9 -3 -5 -35 -12 -71 -16 -36 -3 -65 -10
-65 -15 0 -4 -27 -11 -60 -15 -33 -4 -60 -11 -60 -15 0 -5 -20 -12 -45 -16
-25 -3 -45 -10 -45 -15 0 -5 -11 -9 -24 -9 -13 0 -35 -9 -49 -20 -14 -11 -28
-20 -31 -20 -10 0 -46 -34 -46 -43 0 -5 -13 -25 -30 -44 -16 -18 -30 -45 -30
-58 0 -14 -4 -25 -10 -25 -12 0 -14 -177 -1 -184 5 -3 12 -21 15 -40 4 -19 13
-37 21 -40 8 -3 15 -11 15 -19 0 -34 137 -127 188 -127 11 0 24 -4 27 -10 8
-12 102 -13 109 -1 3 4 28 11 56 15 27 4 50 11 50 15 0 5 27 12 60 16 33 4 60
11 60 15 0 5 29 12 65 15 36 4 68 11 70 16 3 4 41 11 85 15 44 3 83 10 85 14
3 5 44 11 93 15 48 4 92 11 97 16 6 4 76 11 155 15 80 4 147 10 150 15 3 4 57
8 120 10 63 1 119 4 123 6 21 12 776 -5 792 -17 6 -4 73 -11 150 -15 77 -4
145 -11 150 -15 6 -4 54 -11 108 -15 53 -4 100 -11 102 -15 3 -5 43 -11 90
-15 47 -4 87 -11 90 -15 3 -5 33 -11 67 -15 35 -4 68 -11 73 -15 6 -4 36 -11
67 -14 32 -4 60 -11 63 -16 3 -4 32 -11 65 -15 33 -4 60 -11 60 -15 0 -5 21
-12 48 -16 26 -3 52 -10 57 -14 6 -4 26 -11 45 -15 19 -4 40 -11 45 -15 6 -5
31 -11 58 -15 26 -4 47 -11 47 -15 0 -5 15 -12 33 -15 17 -4 37 -11 42 -15 6
-4 25 -11 43 -15 18 -4 45 -13 60 -21 15 -8 35 -14 45 -14 9 0 17 -4 17 -9 0
-5 14 -12 30 -16 17 -4 30 -10 30 -15 0 -5 13 -11 30 -15 28 -6 180 -81 335
-165 39 -21 80 -39 92 -39 12 -1 25 -5 28 -11 3 -5 24 -10 45 -10 21 0 42 5
45 10 3 6 19 10 35 10 16 0 32 5 35 10 4 6 11 8 16 4 9 -5 80 42 87 58 2 4 10
8 18 8 8 0 14 7 14 15 0 7 6 18 14 22 17 10 56 82 56 105 0 9 5 20 10 23 6 3
10 40 10 81 0 43 -4 74 -10 74 -5 0 -10 7 -10 16 0 22 -41 104 -52 104 -5 0
-13 12 -19 26 -5 15 -12 24 -16 21 -3 -4 -15 3 -27 16 -23 24 -42 35 -269 150
-81 42 -161 78 -177 82 -17 4 -30 10 -30 15 0 5 -15 12 -32 15 -18 4 -42 14
-53 21 -11 8 -30 14 -42 14 -13 0 -23 4 -23 9 0 5 -15 13 -32 16 -18 4 -37 11
-43 15 -5 4 -25 11 -42 15 -18 3 -33 10 -33 15 0 4 -20 11 -45 14 -25 4 -45
11 -45 15 0 5 -20 12 -45 15 -25 4 -45 11 -45 15 0 5 -22 11 -50 15 -27 4 -52
10 -54 15 -3 5 -28 11 -56 15 -27 4 -50 11 -50 15 0 5 -26 12 -57 16 -32 4
-63 11 -69 16 -6 5 -39 12 -73 15 -33 4 -61 10 -61 14 0 4 -28 11 -62 14 -35
4 -67 11 -73 16 -10 7 -97 21 -142 22 -13 0 -23 4 -23 9 0 5 -20 9 -44 9 -25
0 -48 5 -51 11 -4 6 -27 9 -51 8 -24 -2 -46 0 -50 4 -4 4 -33 7 -64 7 -31 0
-60 4 -66 10 -5 5 -70 12 -144 16 -75 4 -138 12 -142 17 -6 11 -912 18 -1127
10z"/>
<path d="M4081 5553 c-52 -2 -100 -8 -105 -13 -6 -4 -59 -12 -119 -16 -59 -3
-107 -10 -107 -14 0 -5 -36 -11 -80 -15 -44 -4 -82 -11 -85 -15 -3 -4 -36 -11
-75 -15 -39 -4 -72 -11 -75 -15 -3 -4 -29 -11 -60 -15 -30 -3 -57 -11 -60 -16
-4 -5 -19 -9 -35 -9 -16 0 -31 -4 -35 -10 -3 -5 -12 -7 -19 -4 -8 3 -17 1 -21
-5 -3 -6 -19 -11 -36 -11 -16 0 -29 -5 -29 -10 0 -6 -6 -10 -12 -9 -40 7 -141
-83 -174 -156 -31 -65 -23 -167 17 -235 5 -8 12 -21 16 -29 8 -18 35 -46 54
-54 8 -4 29 -16 47 -27 18 -11 38 -18 43 -15 5 4 9 1 9 -4 0 -13 136 -15 144
-2 3 5 15 7 25 4 10 -3 22 0 25 6 4 6 20 11 36 11 16 0 31 4 35 10 3 5 12 7
19 4 8 -3 17 -1 21 5 3 6 19 11 36 11 16 0 29 4 29 9 0 5 34 12 75 16 41 4 75
11 75 15 0 4 36 11 80 15 44 4 82 11 85 15 3 4 53 11 112 15 60 4 114 12 122
19 20 15 929 16 939 0 4 -6 57 -14 121 -18 63 -4 119 -10 125 -15 6 -5 53 -12
104 -16 50 -4 92 -11 92 -15 0 -4 28 -10 61 -14 34 -3 67 -10 73 -15 11 -9 73
-21 114 -22 12 -1 22 -5 22 -10 0 -5 13 -9 29 -9 17 0 33 -5 36 -11 4 -6 13
-8 21 -5 7 3 16 1 19 -4 4 -6 19 -10 35 -10 16 0 32 -5 35 -11 4 -6 13 -8 21
-5 7 3 16 1 19 -4 4 -6 17 -10 30 -10 13 0 26 -4 29 -9 4 -5 24 -12 46 -16 22
-4 42 -11 46 -16 3 -5 13 -9 22 -9 9 0 29 -6 44 -14 15 -8 40 -17 57 -21 17
-4 31 -11 31 -16 0 -5 8 -9 18 -9 9 0 29 -6 44 -14 15 -8 40 -17 57 -21 17 -4
31 -10 31 -15 0 -4 12 -11 28 -15 39 -9 212 -95 212 -105 0 -5 14 -11 30 -15
17 -4 30 -10 30 -15 0 -5 14 -11 30 -15 17 -4 30 -10 30 -14 0 -10 83 -51 104
-51 9 0 16 -4 16 -10 0 -6 30 -10 69 -10 39 0 73 5 76 10 3 6 15 10 26 10 27
0 126 95 150 144 14 29 19 61 19 123 0 46 -4 83 -9 83 -5 0 -12 12 -15 26 -9
32 -89 113 -138 139 -21 11 -38 23 -38 26 0 4 -13 10 -30 14 -16 4 -30 10 -30
15 0 5 -13 11 -30 15 -16 4 -30 11 -30 15 0 11 -202 110 -224 110 -9 0 -16 4
-16 9 0 5 -13 12 -30 16 -16 4 -30 11 -30 16 0 5 -9 9 -20 9 -11 0 -37 9 -57
20 -21 11 -43 20 -50 20 -6 0 -26 8 -45 17 -58 29 -65 31 -102 38 -20 4 -38
11 -41 15 -3 5 -23 11 -45 15 -22 4 -42 11 -45 15 -3 5 -26 12 -50 16 -25 3
-45 10 -45 14 0 4 -19 11 -42 15 -24 5 -45 9 -48 10 -3 1 -14 5 -25 9 -11 4
-27 11 -35 15 -8 4 -25 7 -37 6 -13 -1 -23 2 -23 7 0 4 -13 8 -29 8 -17 0 -32
4 -36 9 -3 5 -31 12 -63 16 -31 3 -64 10 -73 15 -8 4 -46 11 -82 15 -37 4 -69
11 -72 15 -3 4 -42 11 -87 15 -46 4 -88 11 -93 16 -6 4 -65 11 -130 15 -66 4
-123 12 -127 18 -7 10 -793 18 -997 9z"/>
<path d="M7660 5073 c-8 -3 -29 -18 -45 -34 l-31 -29 2 -375 2 -375 -59 0
c-33 0 -59 -4 -59 -8 0 -5 -62 -12 -137 -15 -75 -4 -142 -12 -147 -17 -6 -6
-36 -10 -68 -10 -32 0 -58 -4 -58 -9 0 -5 -25 -12 -55 -16 -30 -3 -57 -11 -60
-16 -4 -5 -19 -9 -35 -9 -16 0 -32 -4 -35 -10 -3 -5 -18 -10 -33 -10 -15 0
-40 -7 -56 -15 -15 -8 -39 -15 -52 -15 -13 0 -24 -4 -24 -9 0 -5 -18 -11 -40
-15 -22 -3 -40 -10 -40 -14 0 -8 -48 -32 -63 -32 -6 0 -33 -11 -62 -25 l-52
-26 -108 55 c-60 31 -111 54 -113 51 -3 -2 -19 6 -36 18 -17 12 -33 21 -36 21
-9 -2 -63 18 -122 47 -9 5 -35 12 -58 15 -22 4 -40 10 -40 15 0 4 -20 11 -45
15 -25 3 -45 10 -45 15 0 4 -23 11 -50 15 -28 4 -53 10 -56 15 -2 5 -27 11
-54 15 -28 4 -50 10 -50 14 0 5 -29 12 -65 15 -36 4 -68 11 -70 15 -3 5 -36
12 -73 15 -37 4 -72 11 -77 15 -6 5 -55 12 -110 16 -55 4 -103 11 -106 15 -3
5 -86 12 -185 15 -98 4 -184 10 -190 15 -6 5 -16 3 -22 -3 -9 -9 -12 -9 -12 0
0 9 -37 12 -138 12 -94 0 -142 -4 -150 -12 -9 -9 -12 -9 -12 1 0 10 -3 11 -14
2 -11 -9 -15 -9 -19 1 -4 9 -8 10 -14 2 -5 -7 -78 -14 -198 -18 -104 -4 -192
-11 -195 -15 -3 -5 -52 -12 -110 -16 -58 -4 -109 -11 -115 -15 -5 -4 -47 -11
-93 -15 -45 -4 -84 -11 -87 -15 -3 -5 -41 -12 -85 -16 -44 -3 -83 -10 -85 -15
-3 -4 -34 -11 -70 -14 -36 -4 -65 -11 -65 -15 0 -4 -18 -10 -40 -13 -30 -4
-51 -16 -84 -50 -25 -24 -48 -56 -52 -71 -3 -14 -10 -26 -15 -26 -12 0 -11
-107 1 -115 6 -3 10 -15 10 -26 0 -22 86 -119 106 -119 7 0 14 -5 16 -11 5
-14 144 -14 161 -1 7 6 45 14 85 17 39 4 72 11 72 16 0 4 36 11 80 15 44 3 83
10 85 14 3 5 48 11 100 15 52 4 95 11 95 15 0 4 55 11 123 15 67 4 128 12 135
18 19 15 794 16 813 1 8 -6 63 -14 124 -18 60 -4 114 -11 120 -15 5 -5 45 -12
88 -16 42 -4 77 -11 77 -15 0 -4 28 -10 61 -14 34 -3 67 -10 73 -15 6 -5 35
-12 63 -16 29 -4 55 -11 58 -15 3 -5 26 -12 50 -16 25 -3 45 -10 45 -15 0 -4
20 -11 45 -15 25 -3 45 -10 45 -15 0 -4 20 -11 45 -15 25 -3 45 -10 45 -15 0
-4 15 -11 33 -14 17 -4 41 -13 52 -21 18 -14 15 -19 -75 -111 -52 -52 -101
-103 -108 -112 -7 -9 -29 -35 -50 -57 -41 -45 -57 -69 -71 -99 -5 -11 -18 -29
-30 -39 -11 -11 -21 -25 -21 -31 0 -7 -7 -15 -15 -19 -8 -3 -15 -12 -15 -19 0
-8 -9 -22 -19 -31 -11 -10 -22 -29 -26 -44 -3 -14 -15 -33 -25 -42 -10 -9 -22
-28 -25 -43 -4 -15 -11 -27 -16 -27 -5 0 -9 -9 -9 -20 0 -11 -4 -20 -9 -20 -5
0 -12 -13 -16 -30 -4 -16 -10 -30 -13 -30 -8 0 -42 -74 -42 -90 0 -6 -3 -10
-8 -10 -8 0 -26 -40 -37 -80 -6 -26 -12 -39 -39 -102 -9 -20 -16 -43 -16 -52
0 -9 -4 -16 -9 -16 -5 0 -12 -23 -16 -52 -4 -29 -11 -59 -15 -68 -22 -44 -31
-69 -40 -110 -18 -89 -23 -105 -31 -115 -4 -6 -11 -52 -15 -103 -4 -51 -11
-92 -15 -92 -5 0 -9 -22 -9 -49 0 -28 -4 -52 -9 -55 -5 -3 -12 -66 -16 -140
l-7 -135 33 -31 c44 -40 72 -47 106 -24 46 29 62 56 63 101 0 23 4 44 9 47 4
3 11 28 15 55 4 28 11 53 16 56 6 3 10 19 10 35 0 16 4 31 9 35 5 3 13 20 17
37 7 35 21 64 42 86 6 7 12 20 12 28 0 8 3 14 8 14 4 0 13 15 21 32 7 18 19
38 25 43 6 6 20 26 31 46 22 40 110 145 165 196 98 91 129 117 168 144 24 16
47 29 53 29 5 0 9 5 9 10 0 6 6 10 13 10 8 0 22 9 32 20 17 19 252 140 272
140 15 0 63 24 63 32 0 4 16 10 35 14 19 3 38 10 41 15 3 5 16 9 29 9 13 0 27
4 30 10 3 5 28 12 56 16 27 4 52 11 55 15 3 5 16 9 30 9 13 0 24 4 24 9 0 5
27 12 60 16 33 4 63 11 66 16 3 5 22 9 43 9 20 0 41 4 47 10 5 5 49 13 97 16
48 4 90 11 93 16 3 4 38 8 78 8 40 0 75 3 78 6 6 5 65 9 289 20 l117 5 1 -372
0 -372 23 -25 c52 -55 100 -48 190 29 31 27 60 49 65 49 5 0 22 14 39 31 16
17 63 57 104 89 41 32 85 67 97 79 12 12 26 21 30 21 5 0 33 25 63 55 30 30
60 55 66 55 7 0 14 3 16 8 5 11 106 92 115 92 5 0 31 23 58 50 27 28 55 50 61
50 7 0 21 11 32 25 11 14 24 25 29 25 5 0 24 16 43 35 19 19 38 35 43 35 6 0
33 21 62 48 28 26 60 54 71 62 89 69 109 86 112 92 2 5 9 8 16 8 6 0 30 18 51
40 21 22 42 40 47 40 4 0 22 16 41 35 19 19 38 35 44 35 5 0 22 13 38 30 16
17 33 30 38 30 6 0 35 23 66 51 91 82 100 89 110 89 5 0 18 14 28 30 9 17 21
30 25 30 4 0 8 16 8 35 0 19 -4 35 -10 35 -5 0 -10 7 -10 15 0 8 -7 15 -15 15
-8 0 -15 7 -15 15 0 8 -5 15 -10 15 -11 0 -19 7 -111 89 -31 28 -59 51 -64 51
-8 0 -61 43 -116 96 -21 18 -41 34 -46 34 -5 0 -27 18 -48 40 -21 22 -43 40
-48 40 -6 0 -31 19 -56 41 -25 23 -58 52 -73 65 -14 13 -30 24 -35 24 -5 0
-29 20 -53 45 -24 25 -49 45 -55 45 -6 0 -24 14 -40 30 -16 17 -33 30 -37 30
-5 0 -22 16 -39 35 -17 19 -35 35 -41 35 -5 0 -27 17 -48 38 -21 20 -57 50
-79 66 -23 17 -41 33 -41 38 0 4 -6 8 -13 8 -8 0 -24 11 -37 25 -13 14 -28 25
-33 25 -6 0 -32 23 -58 50 -26 28 -52 50 -57 50 -4 0 -21 14 -37 30 -16 17
-34 30 -39 30 -6 0 -30 17 -52 38 -98 88 -127 112 -133 112 -4 0 -22 16 -41
35 -19 19 -38 35 -43 35 -4 0 -23 11 -40 24 -36 27 -65 37 -87 29z"/>
</g>
</svg>
